HIERARCHY
ROOT Hips
{
	OFFSET 0.000000 0.000000 0.000000
	CHANNELS 6 Xposition Yposition Zposition Xrotation Yrotation Zrotation
	JOINT LeftUpLeg
	{
		OFFSET 9.269806 0.000000 0.000000
		CHANNELS 3 Xrotation Yrotation Zrotation
		JOINT LeftLeg
		{
			OFFSET 0.000000 -39.892732 0.000000
			CHANNELS 3 Xrotation Yrotation Zrotation
			JOINT LeftFoot
			{
				OFFSET 0.000000 -39.163422 0.000000
				CHANNELS 3 Xrotation Yrotation Zrotation
				JOINT LeftToeBase
				{
					OFFSET 0.000000 -3.899992 14.555038
					CHANNELS 3 Xrotation Yrotation Zrotation
					End Site
					{
						OFFSET 0.000000 0.000000 7.499985
					}
				}
			}
		}
	}
	JOINT RightUpLeg
	{
		OFFSET -9.269806 0.000000 0.000000
		CHANNELS 3 Xrotation Yrotation Zrotation
		JOINT RightLeg
		{
			OFFSET 0.000000 -39.892732 0.000000
			CHANNELS 3 Xrotation Yrotation Zrotation
			JOINT RightFoot
			{
				OFFSET 0.000000 -39.163422 0.000000
				CHANNELS 3 Xrotation Yrotation Zrotation
				JOINT RightToeBase
				{
					OFFSET 0.000000 -3.899992 14.555038
					CHANNELS 3 Xrotation Yrotation Zrotation
					End Site
					{
						OFFSET 0.000000 0.000000 7.499985
					}
				}
			}
		}
	}
	JOINT Spine
	{
		OFFSET 0.000000 0.100000 0.000000
		CHANNELS 3 Xrotation Yrotation Zrotation
		JOINT Spine1
		{
			OFFSET 0.000000 26.030657 0.000000
			CHANNELS 3 Xrotation Yrotation Zrotation
			JOINT Neck
			{
				OFFSET 0.000000 19.880250 0.000000
				CHANNELS 3 Xrotation Yrotation Zrotation
				JOINT Head
				{
					OFFSET 0.000000 17.544161 0.000000
					CHANNELS 3 Xrotation Yrotation Zrotation
					End Site
					{
						OFFSET 0.000000 11.499977 0.000000
					}
				}
			}
			JOINT LeftShoulder
			{
				OFFSET 0.000000 19.880250 0.000000
				CHANNELS 3 Xrotation Yrotation Zrotation
				JOINT LeftArm
				{
					OFFSET 17.043857 -0.000051 0.000000
					CHANNELS 3 Xrotation Yrotation Zrotation
					JOINT LeftForeArm
					{
						OFFSET 27.798243 -0.000102 0.000000
						CHANNELS 3 Xrotation Yrotation Zrotation
						JOINT LeftHand
						{
							OFFSET 21.641054 -0.000076 0.000000
							CHANNELS 3 Xrotation Yrotation Zrotation
							End Site
							{
								OFFSET 9.999980 -0.000025 0.000000
							}
						}
					}
				}
			}
			JOINT RightShoulder
			{
				OFFSET 0.000000 19.880250 0.000000
				CHANNELS 3 Xrotation Yrotation Zrotation
				JOINT RightArm
				{
					OFFSET -17.043857 -0.000051 0.000000
					CHANNELS 3 Xrotation Yrotation Zrotation
					JOINT RightForeArm
					{
						OFFSET -27.798243 -0.000102 0.000000
						CHANNELS 3 Xrotation Yrotation Zrotation
						JOINT RightHand
						{
							OFFSET -21.641054 -0.000076 0.000000
							CHANNELS 3 Xrotation Yrotation Zrotation
							End Site
							{
								OFFSET -13.699973 -0.000051 0.000000
							}
						}
					}
				}
			}
		}
	}
}
MOTION
Frames: 12
Frame Time: 0.033333
0.000000 84.456146 0.000000 0.000000 0.000000 0.000000 0.000000 0.000000 0.000000 0.000000 0.000000 0.000000 0.000000 0.000000 0.000000 0.000000 0.000000 0.000000 0.000000 0.000000 0.000000 0.000000 0.000000 0.000000 0.000000 0.000000 0.000000 0.000000 0.000000 0.000000 0.000000 0.000000 0.000000 0.000000 0.000000 0.000000 0.000000 0.000000 0.000000 0.000000 0.000000 0.000000 0.000000 0.000000 0.000000 0.000000 0.000000 0.000000 0.000000 0.000000 0.000000 0.000000 0.000000 0.000000 0.000000 0.000000 0.000000 0.000000 0.000000 0.000000 0.000000 0.000000 0.000000 0.000000 0.000000 0.000000 
2.914142 83.319366 4.358132 1.867300 -8.939500 -2.485100 -1.804800 4.440100 9.122000 10.689100 0.000000 0.000000 -14.426200 1.620700 -8.120300 -6.638800 0.000000 0.000000 -3.348900 -5.678000 -0.144800 8.259800 0.000000 0.000000 -19.683500 1.120600 -1.814700 9.235400 0.000000 0.000000 -3.966600 2.103900 -0.918200 11.282700 0.318700 1.372400 3.922800 -10.743900 -1.831200 8.944100 -3.847500 2.941200 18.968100 13.343900 -0.611000 -26.511100 -27.497300 -88.362100 0.000000 -10.068000 0.000000 -16.677700 -0.469000 -19.849100 14.729900 -19.054300 5.165500 -22.520800 25.160900 83.993200 0.000000 9.976300 0.000000 -25.410500 -2.512700 14.089100 
2.672588 83.305904 4.235450 1.804800 -8.315500 -2.446600 -2.062200 3.911100 9.250800 11.067500 0.000000 0.000000 -14.588400 1.392400 -7.875900 -6.926900 0.000000 0.000000 -3.790600 -5.388400 0.006400 9.445900 0.000000 0.000000 -20.890300 0.667700 -2.975400 9.706900 0.000000 0.000000 -3.702500 2.106100 -0.984500 11.641000 0.356300 1.428300 3.933200 -8.797000 -2.423700 10.854400 -2.817000 3.571100 18.941100 13.366800 -0.608900 -25.964000 -28.902600 -87.390100 -0.000100 -13.435800 0.000000 -14.950100 -0.968200 -12.219000 15.130000 -18.797100 5.549600 -22.458300 26.419400 85.447400 0.000000 10.686600 0.000000 -23.178900 -5.365900 17.314600 
2.502916 83.293204 4.136136 2.153000 -7.922400 -2.320500 -2.674300 3.941200 9.321600 11.300400 0.000000 0.000000 -15.040200 0.714200 -7.385100 -7.516900 0.000000 0.000000 -4.630700 -4.872400 0.085300 10.528700 0.000000 0.000000 -22.231100 0.347700 -3.917700 10.779200 0.000000 0.000000 -3.645900 2.222600 -0.944800 11.860700 0.525200 1.501900 4.224300 -6.461400 -3.002600 11.760800 -2.954000 4.099200 18.854700 13.489400 -1.229100 -23.937500 -34.832800 -82.930300 -0.000100 -17.518700 0.000000 -12.372400 -1.616800 -13.667800 15.299900 -18.723700 5.487100 -21.982100 24.988500 83.835900 0.000000 12.118100 0.000000 -25.229100 -4.047400 16.152100 
2.339594 83.269074 3.996690 2.823600 -7.044200 -2.155900 -3.728400 3.253100 9.368900 11.712300 0.000000 0.000000 -15.440300 0.293000 -7.149600 -8.465300 0.000000 0.000000 -5.572300 -4.813900 0.127300 11.288600 0.000000 0.000000 -23.338200 -0.023800 -4.530500 10.900800 0.000000 0.000000 -3.790800 2.096500 -0.952600 12.206000 0.432600 1.511500 4.526100 -4.484800 -3.199100 12.150900 -3.116400 4.538400 18.989500 13.364600 -1.656700 -21.469700 -40.091600 -77.332700 -0.000100 -21.177500 0.000000 -9.940500 -1.704000 -15.316200 15.063100 -18.552700 5.092000 -21.479200 25.499700 81.103500 0.000000 12.660900 0.000000 -25.725700 -2.999400 14.076100 
2.147316 83.221830 3.881882 3.328600 -5.879200 -2.049400 -4.850900 2.142000 9.382700 12.618800 0.000000 0.000000 -16.014400 0.077800 -6.527500 -8.942100 0.000000 0.000000 -6.467100 -4.916400 0.210700 12.359800 0.000000 0.000000 -24.633800 -0.472000 -4.839700 11.097200 0.000000 0.000000 -3.564900 1.941300 -0.890400 12.428400 0.264500 1.365200 4.815600 -3.266700 -3.346600 12.187400 -3.196600 5.150600 19.252200 12.956600 -1.770300 -18.711000 -43.463200 -71.349400 -0.000100 -24.096200 0.000000 -8.045300 -1.594600 -15.358700 14.912300 -18.605200 4.647500 -20.897000 26.390300 78.057900 0.000000 12.890000 0.000000 -26.195400 -2.712300 12.305900 
1.946656 83.129882 3.712718 3.935500 -4.924600 -1.816800 -6.389300 0.698600 9.200400 14.297200 0.000000 0.000000 -16.845100 0.066700 -5.478800 -9.859200 0.000000 0.000000 -7.995400 -4.510700 0.205900 14.267400 0.000000 0.000000 -25.632100 -0.745800 -5.528800 11.193100 0.000000 0.000000 -3.097500 1.865900 -0.932500 12.469900 0.151500 1.084300 4.991400 -2.211100 -3.329200 11.901400 -3.544500 5.732200 19.297500 12.741800 -1.568300 -17.234300 -44.497500 -66.888300 -0.000100 -25.144400 0.000000 -7.481600 -1.448900 -14.439500 14.715000 -18.600300 4.185400 -20.349000 27.203200 74.966800 0.000000 12.744500 0.000000 -24.955400 -2.751000 10.357800 
1.748790 82.876390 3.393948 4.699000 -4.052700 -1.463200 -8.860800 -1.107600 8.832200 17.349700 0.000000 0.000000 -17.757500 0.256500 -4.517700 -10.485600 0.000000 0.000000 -10.566400 -4.063200 0.025500 17.662400 0.000000 0.000000 -26.732400 -1.541800 -6.420000 11.385600 0.000000 0.000000 -2.460200 1.836300 -1.069900 12.608400 0.075000 0.772300 4.920200 -1.520200 -3.322600 11.078500 -4.002100 6.243800 18.813900 12.674100 -1.042100 -17.509800 -44.222700 -64.358500 -0.000100 -24.351500 0.000000 -7.549000 -1.383800 -13.875600 14.166000 -18.548700 3.473500 -19.690000 27.561500 72.094400 0.000000 12.723800 0.000000 -24.194900 -2.855300 8.993900 
1.560322 82.312764 3.124962 5.023900 -3.062700 -0.975500 -11.681100 -2.401600 8.275000 21.948700 0.000000 0.000000 -19.543400 0.356100 -4.087200 -10.904800 0.000000 0.000000 -13.709900 -4.626900 -0.667700 23.124200 0.000000 0.000000 -28.405900 -2.265000 -6.578300 11.335100 0.000000 0.000000 -1.407200 1.813900 -1.252500 12.969900 -0.014400 0.399200 4.765800 -1.276800 -3.403000 10.021800 -4.372000 6.613300 18.338800 12.247400 -0.432400 -18.700700 -42.969200 -62.681600 -0.000100 -23.112100 0.000000 -7.350300 -1.144400 -13.162100 13.695700 -18.397200 2.571100 -18.961500 27.726000 69.470900 0.000000 12.990600 0.000000 -24.135000 -2.675900 8.188500 
1.335532 81.236312 2.707386 5.693800 -2.179600 -0.532700 -16.405700 -3.417100 7.834300 29.332500 0.000000 0.000000 -22.104400 0.180500 -4.126500 -11.480300 0.000000 0.000000 -18.169200 -5.172200 -1.398500 30.180400 0.000000 0.000000 -30.689000 -2.797200 -6.940600 10.815000 0.000000 0.000000 -0.326500 1.832500 -1.232200 13.105600 -0.152700 -0.209800 4.283500 -1.087500 -3.617900 9.012900 -4.633800 7.193800 17.754500 11.779200 0.176000 -19.901700 -41.403200 -61.050900 -0.000100 -22.279000 0.000000 -6.977000 -0.564800 -12.374100 13.187200 -18.213400 1.594900 -17.849800 28.344100 66.978000 -0.000100 13.724100 0.000000 -23.887400 -2.491800 7.774900 
1.100074 79.467202 2.207768 6.609000 -1.164900 -0.557300 -22.307300 -4.825600 7.745700 38.376800 0.000000 0.000000 -25.298500 -0.179200 -5.454400 -11.535600 0.000000 0.000000 -23.033400 -5.776300 -1.840400 37.760700 0.000000 0.000000 -34.500300 -3.868800 -5.607500 10.187300 0.000000 0.000000 0.508900 1.797000 -0.734700 13.437000 -0.343600 -0.668600 3.148300 -0.879000 -3.985200 8.504800 -4.970100 7.653700 17.333000 11.103200 0.354900 -20.763900 -40.081600 -58.690200 -0.000100 -22.333400 0.000000 -7.193800 -0.185900 -12.236000 12.401600 -18.018400 0.494300 -16.199000 28.990500 64.304300 -0.000100 15.300100 0.000000 -24.213500 -2.699800 7.736200 
0.738378 77.035914 1.690624 7.948800 -0.539300 -1.202000 -28.792600 -5.872100 8.530200 47.892900 0.000000 0.000000 -29.258400 -0.720200 -8.055500 -10.907900 0.000000 0.000000 -28.929300 -5.542000 -1.313000 46.635100 0.000000 0.000000 -38.752300 -5.171100 -5.483100 10.007400 0.000000 0.000000 0.901300 1.931300 -0.143300 13.471900 -0.225400 -0.530300 2.604200 -0.999400 -4.043100 7.282500 -5.092700 7.331600 17.433500 10.449900 -0.271300 -21.404000 -39.961900 -55.568300 -0.000100 -22.301800 0.000000 -7.770400 -0.520700 -11.897700 12.516200 -17.515300 0.413600 -14.240100 30.183600 60.117300 -0.000100 17.129900 0.000000 -25.328000 -2.620800 8.038400 
